<mxfile host="app.diagrams.net" modified="2024-05-23T08:06:04.082Z" agent="Mozilla/5.0 (Windows NT 10.0; Win64; x64) AppleWebKit/537.36 (KHTML, like Gecko) Chrome/125.0.0.0 Safari/537.36" etag="p1RfsCsHIpM_v1YZXicP" version="24.4.6" type="github">
  <diagram name="第 1 页" id="zgpLOf6gEapaL2-dQccr">
    <mxGraphModel dx="1195" dy="622" grid="0" gridSize="10" guides="1" tooltips="1" connect="1" arrows="1" fold="1" page="1" pageScale="1" pageWidth="1169" pageHeight="827" math="0" shadow="0">
      <root>
        <mxCell id="0" />
        <mxCell id="1" parent="0" />
        <mxCell id="pdt_DtYbB_fLlAcmCIRx-1" value="" style="shape=cube;whiteSpace=wrap;html=1;boundedLbl=1;backgroundOutline=1;darkOpacity=0.05;darkOpacity2=0.1;fillColor=#dae8fc;strokeColor=#6c8ebf;size=30;" vertex="1" parent="1">
          <mxGeometry x="230" y="210" width="70" height="100" as="geometry" />
        </mxCell>
        <mxCell id="pdt_DtYbB_fLlAcmCIRx-2" value="&lt;b&gt;&lt;font style=&quot;font-size: 16px;&quot;&gt;C&lt;/font&gt;&lt;/b&gt;" style="text;html=1;align=center;verticalAlign=middle;resizable=0;points=[];autosize=1;strokeColor=none;fillColor=none;" vertex="1" parent="1">
          <mxGeometry x="260" y="310" width="40" height="30" as="geometry" />
        </mxCell>
        <mxCell id="pdt_DtYbB_fLlAcmCIRx-3" value="&lt;font style=&quot;font-size: 14px;&quot;&gt;&lt;b&gt;W&lt;/b&gt;&lt;/font&gt;" style="text;html=1;align=center;verticalAlign=middle;resizable=0;points=[];autosize=1;strokeColor=none;fillColor=none;" vertex="1" parent="1">
          <mxGeometry x="210" y="288" width="40" height="30" as="geometry" />
        </mxCell>
        <mxCell id="pdt_DtYbB_fLlAcmCIRx-4" value="&lt;font style=&quot;font-size: 14px;&quot;&gt;&lt;b&gt;H&lt;/b&gt;&lt;/font&gt;" style="text;html=1;align=center;verticalAlign=middle;whiteSpace=wrap;rounded=0;" vertex="1" parent="1">
          <mxGeometry x="240" y="258" width="60" height="30" as="geometry" />
        </mxCell>
        <mxCell id="pdt_DtYbB_fLlAcmCIRx-5" value="&lt;font style=&quot;font-size: 14px;&quot;&gt;&lt;b&gt;X&lt;/b&gt;&lt;/font&gt;" style="text;html=1;align=center;verticalAlign=middle;resizable=0;points=[];autosize=1;strokeColor=none;fillColor=none;" vertex="1" parent="1">
          <mxGeometry x="255" y="180" width="30" height="30" as="geometry" />
        </mxCell>
        <mxCell id="pdt_DtYbB_fLlAcmCIRx-6" value="" style="endArrow=classic;html=1;rounded=0;" edge="1" parent="1">
          <mxGeometry width="50" height="50" relative="1" as="geometry">
            <mxPoint x="310" y="270" as="sourcePoint" />
            <mxPoint x="680" y="270" as="targetPoint" />
          </mxGeometry>
        </mxCell>
        <mxCell id="pdt_DtYbB_fLlAcmCIRx-7" value="" style="endArrow=classic;html=1;rounded=0;" edge="1" parent="1">
          <mxGeometry width="50" height="50" relative="1" as="geometry">
            <mxPoint x="310" y="250" as="sourcePoint" />
            <mxPoint x="380" y="200" as="targetPoint" />
          </mxGeometry>
        </mxCell>
        <mxCell id="pdt_DtYbB_fLlAcmCIRx-8" value="Squeeze" style="text;html=1;align=center;verticalAlign=middle;resizable=0;points=[];autosize=1;strokeColor=none;fillColor=none;" vertex="1" parent="1">
          <mxGeometry x="295" y="198" width="70" height="30" as="geometry" />
        </mxCell>
        <mxCell id="pdt_DtYbB_fLlAcmCIRx-9" value="" style="shape=table;startSize=0;container=1;collapsible=0;childLayout=tableLayout;" vertex="1" parent="1">
          <mxGeometry x="390" y="175" width="60" height="40" as="geometry" />
        </mxCell>
        <mxCell id="pdt_DtYbB_fLlAcmCIRx-10" value="" style="shape=tableRow;horizontal=0;startSize=0;swimlaneHead=0;swimlaneBody=0;strokeColor=inherit;top=0;left=0;bottom=0;right=0;collapsible=0;dropTarget=0;fillColor=none;points=[[0,0.5],[1,0.5]];portConstraint=eastwest;" vertex="1" parent="pdt_DtYbB_fLlAcmCIRx-9">
          <mxGeometry width="60" height="40" as="geometry" />
        </mxCell>
        <mxCell id="pdt_DtYbB_fLlAcmCIRx-11" value="" style="shape=partialRectangle;html=1;whiteSpace=wrap;connectable=0;strokeColor=inherit;overflow=hidden;fillColor=none;top=0;left=0;bottom=0;right=0;pointerEvents=1;" vertex="1" parent="pdt_DtYbB_fLlAcmCIRx-10">
          <mxGeometry width="8" height="40" as="geometry">
            <mxRectangle width="8" height="40" as="alternateBounds" />
          </mxGeometry>
        </mxCell>
        <mxCell id="pdt_DtYbB_fLlAcmCIRx-12" value="" style="shape=partialRectangle;html=1;whiteSpace=wrap;connectable=0;strokeColor=inherit;overflow=hidden;fillColor=none;top=0;left=0;bottom=0;right=0;pointerEvents=1;" vertex="1" parent="pdt_DtYbB_fLlAcmCIRx-10">
          <mxGeometry x="8" width="7" height="40" as="geometry">
            <mxRectangle width="7" height="40" as="alternateBounds" />
          </mxGeometry>
        </mxCell>
        <mxCell id="pdt_DtYbB_fLlAcmCIRx-13" value="" style="shape=partialRectangle;html=1;whiteSpace=wrap;connectable=0;strokeColor=inherit;overflow=hidden;fillColor=none;top=0;left=0;bottom=0;right=0;pointerEvents=1;" vertex="1" parent="pdt_DtYbB_fLlAcmCIRx-10">
          <mxGeometry x="15" width="8" height="40" as="geometry">
            <mxRectangle width="8" height="40" as="alternateBounds" />
          </mxGeometry>
        </mxCell>
        <mxCell id="pdt_DtYbB_fLlAcmCIRx-14" value="" style="shape=partialRectangle;html=1;whiteSpace=wrap;connectable=0;strokeColor=inherit;overflow=hidden;fillColor=none;top=0;left=0;bottom=0;right=0;pointerEvents=1;" vertex="1" parent="pdt_DtYbB_fLlAcmCIRx-10">
          <mxGeometry x="23" width="7" height="40" as="geometry">
            <mxRectangle width="7" height="40" as="alternateBounds" />
          </mxGeometry>
        </mxCell>
        <mxCell id="pdt_DtYbB_fLlAcmCIRx-15" value="" style="shape=partialRectangle;html=1;whiteSpace=wrap;connectable=0;strokeColor=inherit;overflow=hidden;fillColor=none;top=0;left=0;bottom=0;right=0;pointerEvents=1;" vertex="1" parent="pdt_DtYbB_fLlAcmCIRx-10">
          <mxGeometry x="30" width="8" height="40" as="geometry">
            <mxRectangle width="8" height="40" as="alternateBounds" />
          </mxGeometry>
        </mxCell>
        <mxCell id="pdt_DtYbB_fLlAcmCIRx-16" value="" style="shape=partialRectangle;html=1;whiteSpace=wrap;connectable=0;strokeColor=inherit;overflow=hidden;fillColor=none;top=0;left=0;bottom=0;right=0;pointerEvents=1;" vertex="1" parent="pdt_DtYbB_fLlAcmCIRx-10">
          <mxGeometry x="38" width="7" height="40" as="geometry">
            <mxRectangle width="7" height="40" as="alternateBounds" />
          </mxGeometry>
        </mxCell>
        <mxCell id="pdt_DtYbB_fLlAcmCIRx-17" value="" style="shape=partialRectangle;html=1;whiteSpace=wrap;connectable=0;strokeColor=inherit;overflow=hidden;fillColor=none;top=0;left=0;bottom=0;right=0;pointerEvents=1;" vertex="1" parent="pdt_DtYbB_fLlAcmCIRx-10">
          <mxGeometry x="45" width="8" height="40" as="geometry">
            <mxRectangle width="8" height="40" as="alternateBounds" />
          </mxGeometry>
        </mxCell>
        <mxCell id="pdt_DtYbB_fLlAcmCIRx-18" value="" style="shape=partialRectangle;html=1;whiteSpace=wrap;connectable=0;strokeColor=inherit;overflow=hidden;fillColor=none;top=0;left=0;bottom=0;right=0;pointerEvents=1;" vertex="1" parent="pdt_DtYbB_fLlAcmCIRx-10">
          <mxGeometry x="53" width="7" height="40" as="geometry">
            <mxRectangle width="7" height="40" as="alternateBounds" />
          </mxGeometry>
        </mxCell>
        <mxCell id="pdt_DtYbB_fLlAcmCIRx-19" value="" style="endArrow=classic;html=1;rounded=0;" edge="1" parent="1">
          <mxGeometry width="50" height="50" relative="1" as="geometry">
            <mxPoint x="460" y="200" as="sourcePoint" />
            <mxPoint x="540" y="200" as="targetPoint" />
          </mxGeometry>
        </mxCell>
        <mxCell id="pdt_DtYbB_fLlAcmCIRx-20" value="Excitation" style="text;html=1;align=center;verticalAlign=middle;resizable=0;points=[];autosize=1;strokeColor=none;fillColor=none;" vertex="1" parent="1">
          <mxGeometry x="450" y="175" width="80" height="30" as="geometry" />
        </mxCell>
        <mxCell id="pdt_DtYbB_fLlAcmCIRx-31" value="" style="shape=table;startSize=0;container=1;collapsible=0;childLayout=tableLayout;" vertex="1" parent="1">
          <mxGeometry x="550" y="175" width="60" height="40" as="geometry" />
        </mxCell>
        <mxCell id="pdt_DtYbB_fLlAcmCIRx-32" value="" style="shape=tableRow;horizontal=0;startSize=0;swimlaneHead=0;swimlaneBody=0;strokeColor=inherit;top=0;left=0;bottom=0;right=0;collapsible=0;dropTarget=0;fillColor=none;points=[[0,0.5],[1,0.5]];portConstraint=eastwest;" vertex="1" parent="pdt_DtYbB_fLlAcmCIRx-31">
          <mxGeometry width="60" height="40" as="geometry" />
        </mxCell>
        <mxCell id="pdt_DtYbB_fLlAcmCIRx-33" value="" style="shape=partialRectangle;html=1;whiteSpace=wrap;connectable=0;strokeColor=#2D7600;overflow=hidden;fillColor=#60a917;top=0;left=0;bottom=0;right=0;pointerEvents=1;fontColor=#ffffff;" vertex="1" parent="pdt_DtYbB_fLlAcmCIRx-32">
          <mxGeometry width="8" height="40" as="geometry">
            <mxRectangle width="8" height="40" as="alternateBounds" />
          </mxGeometry>
        </mxCell>
        <mxCell id="pdt_DtYbB_fLlAcmCIRx-34" value="" style="shape=partialRectangle;html=1;whiteSpace=wrap;connectable=0;strokeColor=#3700CC;overflow=hidden;fillColor=#6a00ff;top=0;left=0;bottom=0;right=0;pointerEvents=1;fontColor=#ffffff;" vertex="1" parent="pdt_DtYbB_fLlAcmCIRx-32">
          <mxGeometry x="8" width="7" height="40" as="geometry">
            <mxRectangle width="7" height="40" as="alternateBounds" />
          </mxGeometry>
        </mxCell>
        <mxCell id="pdt_DtYbB_fLlAcmCIRx-35" value="" style="shape=partialRectangle;html=1;whiteSpace=wrap;connectable=0;strokeColor=#A50040;overflow=hidden;fillColor=#d80073;top=0;left=0;bottom=0;right=0;pointerEvents=1;fontColor=#ffffff;" vertex="1" parent="pdt_DtYbB_fLlAcmCIRx-32">
          <mxGeometry x="15" width="8" height="40" as="geometry">
            <mxRectangle width="8" height="40" as="alternateBounds" />
          </mxGeometry>
        </mxCell>
        <mxCell id="pdt_DtYbB_fLlAcmCIRx-36" value="" style="shape=partialRectangle;html=1;whiteSpace=wrap;connectable=0;strokeColor=#6F0000;overflow=hidden;fillColor=#a20025;top=0;left=0;bottom=0;right=0;pointerEvents=1;fontColor=#ffffff;" vertex="1" parent="pdt_DtYbB_fLlAcmCIRx-32">
          <mxGeometry x="23" width="7" height="40" as="geometry">
            <mxRectangle width="7" height="40" as="alternateBounds" />
          </mxGeometry>
        </mxCell>
        <mxCell id="pdt_DtYbB_fLlAcmCIRx-37" value="" style="shape=partialRectangle;html=1;whiteSpace=wrap;connectable=0;strokeColor=#C73500;overflow=hidden;fillColor=#fa6800;top=0;left=0;bottom=0;right=0;pointerEvents=1;fontColor=#000000;" vertex="1" parent="pdt_DtYbB_fLlAcmCIRx-32">
          <mxGeometry x="30" width="8" height="40" as="geometry">
            <mxRectangle width="8" height="40" as="alternateBounds" />
          </mxGeometry>
        </mxCell>
        <mxCell id="pdt_DtYbB_fLlAcmCIRx-38" value="" style="shape=partialRectangle;html=1;whiteSpace=wrap;connectable=0;strokeColor=#B09500;overflow=hidden;fillColor=#e3c800;top=0;left=0;bottom=0;right=0;pointerEvents=1;fontColor=#000000;" vertex="1" parent="pdt_DtYbB_fLlAcmCIRx-32">
          <mxGeometry x="38" width="7" height="40" as="geometry">
            <mxRectangle width="7" height="40" as="alternateBounds" />
          </mxGeometry>
        </mxCell>
        <mxCell id="pdt_DtYbB_fLlAcmCIRx-39" value="" style="shape=partialRectangle;html=1;whiteSpace=wrap;connectable=0;strokeColor=#3A5431;overflow=hidden;fillColor=#6d8764;top=0;left=0;bottom=0;right=0;pointerEvents=1;fontColor=#ffffff;" vertex="1" parent="pdt_DtYbB_fLlAcmCIRx-32">
          <mxGeometry x="45" width="8" height="40" as="geometry">
            <mxRectangle width="8" height="40" as="alternateBounds" />
          </mxGeometry>
        </mxCell>
        <mxCell id="pdt_DtYbB_fLlAcmCIRx-40" value="" style="shape=partialRectangle;html=1;whiteSpace=wrap;connectable=0;strokeColor=#ae4132;overflow=hidden;fillColor=#fad9d5;top=0;left=0;bottom=0;right=0;pointerEvents=1;" vertex="1" parent="pdt_DtYbB_fLlAcmCIRx-32">
          <mxGeometry x="53" width="7" height="40" as="geometry">
            <mxRectangle width="7" height="40" as="alternateBounds" />
          </mxGeometry>
        </mxCell>
        <mxCell id="pdt_DtYbB_fLlAcmCIRx-41" value="Scale" style="text;html=1;align=center;verticalAlign=middle;resizable=0;points=[];autosize=1;strokeColor=none;fillColor=none;" vertex="1" parent="1">
          <mxGeometry x="620" y="238" width="50" height="30" as="geometry" />
        </mxCell>
        <mxCell id="pdt_DtYbB_fLlAcmCIRx-42" value="" style="endArrow=classic;html=1;rounded=0;" edge="1" parent="1">
          <mxGeometry width="50" height="50" relative="1" as="geometry">
            <mxPoint x="620" y="200" as="sourcePoint" />
            <mxPoint x="680" y="250" as="targetPoint" />
          </mxGeometry>
        </mxCell>
        <mxCell id="pdt_DtYbB_fLlAcmCIRx-43" value="" style="shape=cube;whiteSpace=wrap;html=1;boundedLbl=1;backgroundOutline=1;darkOpacity=0.05;darkOpacity2=0.1;fillColor=#fad9d5;strokeColor=#ae4132;" vertex="1" parent="1">
          <mxGeometry x="721" y="201.5" width="24" height="103" as="geometry" />
        </mxCell>
        <mxCell id="pdt_DtYbB_fLlAcmCIRx-51" value="" style="shape=cube;whiteSpace=wrap;html=1;boundedLbl=1;backgroundOutline=1;darkOpacity=0.05;darkOpacity2=0.1;fillColor=#6d8764;fontColor=#ffffff;strokeColor=#3A5431;" vertex="1" parent="1">
          <mxGeometry x="717" y="201.5" width="24" height="103" as="geometry" />
        </mxCell>
        <mxCell id="pdt_DtYbB_fLlAcmCIRx-52" value="" style="shape=cube;whiteSpace=wrap;html=1;boundedLbl=1;backgroundOutline=1;darkOpacity=0.05;darkOpacity2=0.1;fillColor=#e3c800;fontColor=#000000;strokeColor=#B09500;" vertex="1" parent="1">
          <mxGeometry x="713" y="201.5" width="24" height="103" as="geometry" />
        </mxCell>
        <mxCell id="pdt_DtYbB_fLlAcmCIRx-53" value="" style="shape=cube;whiteSpace=wrap;html=1;boundedLbl=1;backgroundOutline=1;darkOpacity=0.05;darkOpacity2=0.1;fillColor=#fa6800;fontColor=#000000;strokeColor=#C73500;" vertex="1" parent="1">
          <mxGeometry x="709" y="201.5" width="24" height="103" as="geometry" />
        </mxCell>
        <mxCell id="pdt_DtYbB_fLlAcmCIRx-54" value="" style="shape=cube;whiteSpace=wrap;html=1;boundedLbl=1;backgroundOutline=1;darkOpacity=0.05;darkOpacity2=0.1;fillColor=#a20025;fontColor=#ffffff;strokeColor=#6F0000;" vertex="1" parent="1">
          <mxGeometry x="705" y="201.5" width="24" height="103" as="geometry" />
        </mxCell>
        <mxCell id="pdt_DtYbB_fLlAcmCIRx-55" value="" style="shape=cube;whiteSpace=wrap;html=1;boundedLbl=1;backgroundOutline=1;darkOpacity=0.05;darkOpacity2=0.1;fillColor=#d80073;fontColor=#ffffff;strokeColor=#A50040;" vertex="1" parent="1">
          <mxGeometry x="701" y="201.5" width="24" height="103" as="geometry" />
        </mxCell>
        <mxCell id="pdt_DtYbB_fLlAcmCIRx-56" value="" style="shape=cube;whiteSpace=wrap;html=1;boundedLbl=1;backgroundOutline=1;darkOpacity=0.05;darkOpacity2=0.1;fillColor=#6a00ff;fontColor=#ffffff;strokeColor=#3700CC;" vertex="1" parent="1">
          <mxGeometry x="697" y="201.5" width="24" height="103" as="geometry" />
        </mxCell>
        <mxCell id="pdt_DtYbB_fLlAcmCIRx-57" value="" style="shape=cube;whiteSpace=wrap;html=1;boundedLbl=1;backgroundOutline=1;darkOpacity=0.05;darkOpacity2=0.1;fillColor=#60a917;fontColor=#ffffff;strokeColor=#2D7600;" vertex="1" parent="1">
          <mxGeometry x="693" y="201.5" width="24" height="103" as="geometry" />
        </mxCell>
        <mxCell id="pdt_DtYbB_fLlAcmCIRx-58" value="&lt;b&gt;&lt;font style=&quot;font-size: 16px;&quot;&gt;C&lt;/font&gt;&lt;/b&gt;" style="text;html=1;align=center;verticalAlign=middle;resizable=0;points=[];autosize=1;strokeColor=none;fillColor=none;" vertex="1" parent="1">
          <mxGeometry x="710" y="299" width="40" height="30" as="geometry" />
        </mxCell>
        <mxCell id="pdt_DtYbB_fLlAcmCIRx-59" value="&lt;font style=&quot;font-size: 14px;&quot;&gt;&lt;b&gt;W&lt;/b&gt;&lt;/font&gt;" style="text;html=1;align=center;verticalAlign=middle;resizable=0;points=[];autosize=1;strokeColor=none;fillColor=none;" vertex="1" parent="1">
          <mxGeometry x="670" y="280" width="40" height="30" as="geometry" />
        </mxCell>
        <mxCell id="pdt_DtYbB_fLlAcmCIRx-60" value="&lt;font style=&quot;font-size: 14px;&quot;&gt;&lt;b&gt;H&lt;/b&gt;&lt;/font&gt;" style="text;html=1;align=center;verticalAlign=middle;whiteSpace=wrap;rounded=0;" vertex="1" parent="1">
          <mxGeometry x="677" y="245" width="60" height="30" as="geometry" />
        </mxCell>
        <mxCell id="pdt_DtYbB_fLlAcmCIRx-62" value="X" style="text;html=1;align=center;verticalAlign=middle;resizable=0;points=[];autosize=1;strokeColor=none;fillColor=none;" vertex="1" parent="1">
          <mxGeometry x="711" y="175" width="26" height="26" as="geometry" />
        </mxCell>
        <mxCell id="pdt_DtYbB_fLlAcmCIRx-63" value="～" style="text;html=1;align=center;verticalAlign=middle;resizable=0;points=[];autosize=1;strokeColor=none;fillColor=none;" vertex="1" parent="1">
          <mxGeometry x="709" y="166" width="30" height="26" as="geometry" />
        </mxCell>
        <mxCell id="pdt_DtYbB_fLlAcmCIRx-64" value="" style="endArrow=classic;html=1;rounded=0;" edge="1" parent="1">
          <mxGeometry width="50" height="50" relative="1" as="geometry">
            <mxPoint x="760" y="270" as="sourcePoint" />
            <mxPoint x="840" y="270" as="targetPoint" />
          </mxGeometry>
        </mxCell>
      </root>
    </mxGraphModel>
  </diagram>
</mxfile>
